<?xml version="1.0" encoding="UTF-8"?><svg xmlns="http://www.w3.org/2000/svg" dir="ltr" viewBox="0 0 1918 1000" width="1918" height="1000" preserveAspectRatio="xMidYMid meet" data-drawing-width="1600" class="engineering-svg"><style>.engineering-svg{font-family:Arial,'Segoe UI',sans-serif;background:#fff;color:#0f172a;direction:ltr}.eng-node-title{font-size:12px;font-weight:850;fill:#0f172a;pointer-events:none;direction:ltr;unicode-bidi:plaintext}.eng-node-type-caption{font-size:9px;font-weight:650;fill:#475569;letter-spacing:.1px;direction:ltr;unicode-bidi:plaintext}.eng-node-key{font-size:7px;font-weight:750;fill:#64748b;direction:ltr;unicode-bidi:bidi-override}.eng-node-value{font-size:8px;font-weight:850;fill:#111827;direction:ltr;unicode-bidi:plaintext}.eng-node-extra{font-size:7.2px;font-weight:750;fill:#334155;direction:ltr;unicode-bidi:plaintext}.eng-node-grid-line{stroke:#D7E2E8;stroke-width:1}.eng-node-data-label{cursor:move}.eng-node-label-bg{fill:rgba(255,255,255,.92);stroke:#CBD5E1;stroke-width:.7}.eng-node-data-label.selected .eng-node-label-bg{stroke:#4F46E5;stroke-width:1.5}.eng-route-label-text{cursor:move}.eng-route-label-text text{font-weight:720;pointer-events:none}.eng-route-label-text .eng-route-halo{fill:#fff;stroke:#fff;stroke-width:5px;stroke-linejoin:round}.eng-route-label-text .eng-route-ink{fill:#0F172A;stroke:none}.eng-route-title{font-weight:850}.eng-route-tech{font-size:.82em;fill:#334155}.eng-route-label-text.selected .eng-route-halo{stroke:#EEF2FF;fill:#EEF2FF;stroke-width:7px}.eng-annotation-wrap{cursor:move}.eng-annotation{font-weight:700;fill:#0F172A;white-space:pre}.eng-annotation.normal{font-weight:400}.eng-annotation-bg{fill:rgba(255,255,255,.94);stroke:#CBD5E1;stroke-width:1}.eng-annotation-wrap.selected .eng-annotation-bg{stroke:#4F46E5;stroke-width:2}.eng-sheet-heading{font-size:16px;font-weight:850;direction:ltr}.eng-arabic-label{direction:rtl;unicode-bidi:plaintext}.eng-legend-text{font-size:9.5px;fill:#1F2937}.eng-title-label{font-size:7.5px;font-weight:750;fill:#52636F;direction:ltr;unicode-bidi:plaintext}.eng-title-value-small{font-size:10px;font-weight:850;fill:#0F172A;direction:ltr;unicode-bidi:plaintext}.eng-title-sub{font-size:8px;fill:#475569;direction:ltr}.eng-legend-text{direction:ltr;unicode-bidi:plaintext}.eng-review-mark{cursor:pointer}.eng-review-mark text{font-size:13px;font-weight:900}.eng-node-ports circle{fill:#fff;stroke:#4F46E5;stroke-width:2}.eng-route-handle{cursor:move;fill:#fff;stroke:#4F46E5;stroke-width:2}.eng-issue-pin circle{fill:#FEE2E2;stroke:#DC2626;stroke-width:2}.eng-issue-pin text{font-size:12px;font-weight:900;fill:#991B1B}.eng-node.selected{filter:drop-shadow(0 0 7px rgba(79,70,229,.58))}.eng-company-frame{pointer-events:none}</style><rect width="1918" height="1000" fill="#fff"/><defs><pattern id="eng-grid" width="20" height="20" patternUnits="userSpaceOnUse"><path d="M 20 0 L 0 0 0 20" fill="none" stroke="#dce5e9" stroke-width=".55" opacity=".55"/></pattern><filter id="eng-shadow"><feDropShadow dx="0" dy="2" stdDeviation="2" flood-opacity=".14"/></filter><clipPath id="drawing-clip"><rect x="22" y="22" width="1556" height="956"/></clipPath></defs><g class="eng-drawing-board"><rect x="14" y="14" width="1572" height="972" fill="#fff" stroke="#137A55" stroke-width="4"/><rect x="21" y="21" width="1558" height="958" fill="none" stroke="#137A55" stroke-width="1.4"/><rect x="22" y="22" width="1556" height="956" fill="url(#eng-grid)"/><image href="data:image/svg+xml,%3Csvg xmlns=&apos;http://www.w3.org/2000/svg&apos; viewBox=&apos;0 0 800 500&apos;%3E%3Cpath d=&apos;M30 430 L250 90 L470 390 L720 80&apos; fill=&apos;none&apos; stroke=&apos;%2394a3b8&apos; stroke-width=&apos;8&apos; stroke-dasharray=&apos;18 14&apos;/%3E%3Ctext x=&apos;400&apos; y=&apos;250&apos; text-anchor=&apos;middle&apos; font-family=&apos;Arial&apos; font-size=&apos;32&apos; fill=&apos;%2364748b&apos;%3EREFERENCE SKETCH%3C/text%3E%3C/svg%3E" x="22" y="22" width="1556" height="956" preserveAspectRatio="xMidYMid meet" opacity="0.13" transform="rotate(0 800 500)" pointer-events="none"/><g id="engineering-entities" clip-path="url(#drawing-clip)"><g data-eng-route="r1" class="eng-route  "><polyline points="209,510 350,510 350,235 461,235" fill="none" stroke="#16a34a" stroke-width="4" stroke-linejoin="round" stroke-linecap="round" /></g><g data-eng-route="r2" class="eng-route  "><polyline points="209,510 350,510 350,735 461,735" fill="none" stroke="#16a34a" stroke-width="4" stroke-linejoin="round" stroke-linecap="round" /></g><g data-eng-route="r3" class="eng-route  "><polyline points="500,263 500,263 500,422" fill="none" stroke="#e11d48" stroke-width="4" stroke-linejoin="round" stroke-linecap="round" /></g><g data-eng-route="r4" class="eng-route  "><polyline points="539,450 610,450 610,525 671,525" fill="none" stroke="#16a34a" stroke-width="4" stroke-linejoin="round" stroke-linecap="round" /></g><g data-eng-route="r5" class="eng-route  "><polyline points="749,525 860,525 860,220 1041,220" fill="none" stroke="#16a34a" stroke-width="4" stroke-linejoin="round" stroke-linecap="round" /></g><g data-eng-route="r6" class="eng-route  "><polyline points="749,525 900,525 900,490 1041,490" fill="none" stroke="#e11d48" stroke-width="4" stroke-linejoin="round" stroke-linecap="round" /></g><g data-eng-route="r7" class="eng-route  "><polyline points="539,732.2142857142857 671,732.2142857142857 671,722.7857142857142" fill="none" stroke="#0f766e" stroke-width="4" stroke-linejoin="round" stroke-linecap="round" /></g><g class="eng-node  " data-eng-node="cab1" transform="translate(170 510) rotate(0)" filter="url(#eng-shadow)"><clipPath id="node-content-cab1"><rect x="-85" y="-57" width="170" height="114" rx="5"/></clipPath><rect x="-89" y="-60" width="178" height="120" rx="7" fill="#fff" stroke="#2563EB" stroke-width="3"/><g clip-path="url(#node-content-cab1)"><rect x="-89" y="-60" width="178" height="26" fill="#2563EB" opacity=".09"/><circle cx="-76" cy="-47" r="5" fill="#2563EB"/><text y="-42" text-anchor="middle" class="eng-node-title">CAB-1</text><line x1="-89" y1="-32" x2="89" y2="-32" class="eng-node-grid-line"/><text x="-79" y="-13" class="eng-node-key">NO</text><text x="-55" y="-13" class="eng-node-value">01</text><text x="6" y="-13" class="eng-node-key">CORE</text><text x="79" y="-13" text-anchor="end" class="eng-node-value">288</text><text x="-79" y="6" class="eng-node-key">PORT</text><text x="-47" y="6" class="eng-node-value">144</text><text x="6" y="6" class="eng-node-key">TYPE</text><text x="79" y="6" text-anchor="end" class="eng-node-value">MAIN-CA…</text><text x="-79" y="18" class="eng-node-extra">ODF ODF-144</text><text x="-79" y="30" class="eng-node-extra">SP SP-1X16</text></g></g><g class="eng-node-data-label " data-eng-node-label="cab1" transform="translate(170 602) rotate(0) scale(1 1)"><rect x="-56.43" y="-9" width="112.86" height="30.5" rx="4" class="eng-node-label-bg"/><text text-anchor="middle" x="0" class="eng-node-type-caption"><tspan x="0" dy="0">MAIN CABINET 01</tspan><tspan x="0" dy="11.25">ODF 144 · PORT 01</tspan></text></g><g class="eng-node  " data-eng-node="cab2" transform="translate(710 525) rotate(0)" filter="url(#eng-shadow)"><clipPath id="node-content-cab2"><rect x="-85" y="-57" width="170" height="114" rx="5"/></clipPath><rect x="-89" y="-60" width="178" height="120" rx="7" fill="#fff" stroke="#2563EB" stroke-width="3"/><g clip-path="url(#node-content-cab2)"><rect x="-89" y="-60" width="178" height="26" fill="#2563EB" opacity=".09"/><circle cx="-76" cy="-47" r="5" fill="#2563EB"/><text y="-42" text-anchor="middle" class="eng-node-title">CAB-2</text><line x1="-89" y1="-32" x2="89" y2="-32" class="eng-node-grid-line"/><text x="-79" y="-13" class="eng-node-key">NO</text><text x="-55" y="-13" class="eng-node-value">02</text><text x="6" y="-13" class="eng-node-key">CORE</text><text x="79" y="-13" text-anchor="end" class="eng-node-value">144</text><text x="-79" y="6" class="eng-node-key">PORT</text><text x="-47" y="6" class="eng-node-value">72</text><text x="6" y="6" class="eng-node-key">TYPE</text><text x="79" y="6" text-anchor="end" class="eng-node-value">SUBCAB-…</text><text x="-79" y="18" class="eng-node-extra">ODF ODF-72</text><text x="-79" y="30" class="eng-node-extra">SP SP-1X8</text></g></g><g class="eng-node-data-label " data-eng-node-label="cab2" transform="translate(710 617) rotate(-8) scale(1 1)"><rect x="-101.07" y="-9" width="202.14" height="30.5" rx="4" class="eng-node-label-bg"/><text text-anchor="middle" x="0" class="eng-node-type-caption"><tspan x="0" dy="0">بيانات كابينة فرعية قابلة للتحريك</tspan><tspan x="0" dy="11.25">SUB CABINET 02</tspan></text></g><g class="eng-node  " data-eng-node="tb1" transform="translate(500 235) rotate(0)" filter="url(#eng-shadow)"><clipPath id="node-content-tb1"><rect x="-69" y="-47" width="138" height="94" rx="5"/></clipPath><rect x="-73" y="-50" width="146" height="100" rx="7" fill="#fff" stroke="#16A34A" stroke-width="3"/><g clip-path="url(#node-content-tb1)"><rect x="-73" y="-50" width="146" height="26" fill="#16A34A" opacity=".09"/><circle cx="-60" cy="-37" r="5" fill="#16A34A"/><text y="-32" text-anchor="middle" class="eng-node-title">TB-1</text><line x1="-73" y1="-22" x2="73" y2="-22" class="eng-node-grid-line"/><text x="-63" y="-3" class="eng-node-key">NO</text><text x="-39" y="-3" class="eng-node-value">1</text><text x="6" y="-3" class="eng-node-key">CORE</text><text x="63" y="-3" text-anchor="end" class="eng-node-value">96</text><text x="-63" y="16" class="eng-node-key">PORT</text><text x="-31" y="16" class="eng-node-value">16</text><text x="6" y="16" class="eng-node-key">TYPE</text><text x="63" y="16" text-anchor="end" class="eng-node-value">TB-96C</text><text x="-63" y="28" class="eng-node-extra">CORE 1-96</text></g></g><g class="eng-node-data-label " data-eng-node-label="tb1" transform="translate(500 307) rotate(0) scale(1 1)"><rect x="-59.22" y="-9" width="118.44" height="30.5" rx="4" class="eng-node-label-bg"/><text text-anchor="middle" x="0" class="eng-node-type-caption"><tspan x="0" dy="0">TERMINATION BOX 01</tspan><tspan x="0" dy="11.25">CORE 001–096</tspan></text></g><g class="eng-node  " data-eng-node="tb2" transform="translate(500 735) rotate(0)" filter="url(#eng-shadow)"><clipPath id="node-content-tb2"><rect x="-69" y="-47" width="138" height="94" rx="5"/></clipPath><rect x="-73" y="-50" width="146" height="100" rx="7" fill="#fff" stroke="#16A34A" stroke-width="3"/><g clip-path="url(#node-content-tb2)"><rect x="-73" y="-50" width="146" height="26" fill="#16A34A" opacity=".09"/><circle cx="-60" cy="-37" r="5" fill="#16A34A"/><text y="-32" text-anchor="middle" class="eng-node-title">TB-2</text><line x1="-73" y1="-22" x2="73" y2="-22" class="eng-node-grid-line"/><text x="-63" y="-3" class="eng-node-key">NO</text><text x="-39" y="-3" class="eng-node-value">2</text><text x="6" y="-3" class="eng-node-key">CORE</text><text x="63" y="-3" text-anchor="end" class="eng-node-value">96</text><text x="-63" y="16" class="eng-node-key">PORT</text><text x="-31" y="16" class="eng-node-value">16</text><text x="6" y="16" class="eng-node-key">TYPE</text><text x="63" y="16" text-anchor="end" class="eng-node-value">TB-96C</text><text x="-63" y="28" class="eng-node-extra">CORE 97-192</text></g></g><g class="eng-node-data-label " data-eng-node-label="tb2" transform="translate(500 807) rotate(0) scale(1 1)"><rect x="-42.48" y="-9" width="84.96" height="30.5" rx="4" class="eng-node-label-bg"/><text text-anchor="middle" x="0" class="eng-node-type-caption"><tspan x="0" dy="0">TB-02</tspan><tspan x="0" dy="11.25">CORE 097–192</tspan></text></g><g class="eng-node  " data-eng-node="tb3" transform="translate(1080 220) rotate(0)" filter="url(#eng-shadow)"><clipPath id="node-content-tb3"><rect x="-69" y="-47" width="138" height="94" rx="5"/></clipPath><rect x="-73" y="-50" width="146" height="100" rx="7" fill="#fff" stroke="#16A34A" stroke-width="3"/><g clip-path="url(#node-content-tb3)"><rect x="-73" y="-50" width="146" height="26" fill="#16A34A" opacity=".09"/><circle cx="-60" cy="-37" r="5" fill="#16A34A"/><text y="-32" text-anchor="middle" class="eng-node-title">TB-3</text><line x1="-73" y1="-22" x2="73" y2="-22" class="eng-node-grid-line"/><text x="-63" y="-3" class="eng-node-key">NO</text><text x="-39" y="-3" class="eng-node-value">3</text><text x="6" y="-3" class="eng-node-key">CORE</text><text x="63" y="-3" text-anchor="end" class="eng-node-value">24</text><text x="-63" y="16" class="eng-node-key">PORT</text><text x="-31" y="16" class="eng-node-value">8</text><text x="6" y="16" class="eng-node-key">TYPE</text><text x="63" y="16" text-anchor="end" class="eng-node-value">TB-24C</text><text x="-63" y="28" class="eng-node-extra">CORE 193-216</text></g></g><g class="eng-node-data-label " data-eng-node-label="tb3" transform="translate(1080 274) rotate(0) scale(1 1)"><rect x="-56.43" y="-9" width="112.86" height="19.25" rx="4" class="eng-node-label-bg"/><text text-anchor="middle" x="0" class="eng-node-type-caption"><tspan x="0" dy="0">بوكس نهاية 24 كور</tspan></text></g><g class="eng-node  " data-eng-node="tb4" transform="translate(1080 490) rotate(0)" filter="url(#eng-shadow)"><clipPath id="node-content-tb4"><rect x="-69" y="-47" width="138" height="94" rx="5"/></clipPath><rect x="-73" y="-50" width="146" height="100" rx="7" fill="#fff" stroke="#16A34A" stroke-width="3"/><g clip-path="url(#node-content-tb4)"><rect x="-73" y="-50" width="146" height="26" fill="#16A34A" opacity=".09"/><circle cx="-60" cy="-37" r="5" fill="#16A34A"/><text y="-32" text-anchor="middle" class="eng-node-title">TB-4</text><line x1="-73" y1="-22" x2="73" y2="-22" class="eng-node-grid-line"/><text x="-63" y="-3" class="eng-node-key">NO</text><text x="-39" y="-3" class="eng-node-value">4</text><text x="6" y="-3" class="eng-node-key">CORE</text><text x="63" y="-3" text-anchor="end" class="eng-node-value">24</text><text x="-63" y="16" class="eng-node-key">PORT</text><text x="-31" y="16" class="eng-node-value">8</text><text x="6" y="16" class="eng-node-key">TYPE</text><text x="63" y="16" text-anchor="end" class="eng-node-value">TB-24C</text><text x="-63" y="28" class="eng-node-extra">CORE 217-240</text></g></g><g class="eng-node-data-label " data-eng-node-label="tb4" transform="translate(1080 544) rotate(0) scale(1 1)"><rect x="-56.43" y="-9" width="112.86" height="19.25" rx="4" class="eng-node-label-bg"/><text text-anchor="middle" x="0" class="eng-node-type-caption"><tspan x="0" dy="0">بوكس نهاية 24 كور</tspan></text></g><g class="eng-node  " data-eng-node="j1" transform="translate(500 450) rotate(0)" filter="url(#eng-shadow)"><path d="M 0 -28 L 30 0 L 0 28 L -30 0 Z" fill="#fff" stroke="#7C3AED" stroke-width="3"/><text y="4" text-anchor="middle" class="eng-node-title">J-1</text></g><g class="eng-node-data-label " data-eng-node-label="j1" transform="translate(500 504) rotate(0) scale(1 1)"><rect x="-39.69" y="-9" width="79.38" height="19.25" rx="4" class="eng-node-label-bg"/><text text-anchor="middle" x="0" class="eng-node-type-caption"><tspan x="0" dy="0">وصلة 96 كور</tspan></text></g><g class="eng-node  " data-eng-node="mh1" transform="translate(710 720) rotate(0)" filter="url(#eng-shadow)"><circle r="31" fill="#fff" stroke="#475569" stroke-width="3"/><circle r="20" fill="none" stroke="#475569" stroke-width="1.4"/><text y="4" text-anchor="middle" class="eng-node-title">MH-1</text></g><g class="eng-node-data-label " data-eng-node-label="mh1" transform="translate(710 774) rotate(0) scale(1 1)"><rect x="-48.06" y="-9" width="96.12" height="19.25" rx="4" class="eng-node-label-bg"/><text text-anchor="middle" x="0" class="eng-node-type-caption"><tspan x="0" dy="0">منهول مزود TDM</tspan></text></g><g class="eng-route-label-text " data-eng-route-label="r1" transform="translate(350 349.5) rotate(-4) scale(1 1)"><g style="font-size:11px"><text text-anchor="middle" y="-3.3" class="eng-route-halo eng-route-title">MAIN ROUTE</text><text text-anchor="middle" y="-3.3" class="eng-route-ink eng-route-title">MAIN ROUTE</text><text text-anchor="middle" y="10.780000000000001" class="eng-route-halo eng-route-tech">4W · 7/3.5 · FO-24C · 24C · 26.35 m</text><text text-anchor="middle" y="10.780000000000001" class="eng-route-ink eng-route-tech">4W · 7/3.5 · FO-24C · 24C · 26.35 m</text></g></g><g class="eng-route-label-text " data-eng-route-label="r2" transform="translate(375 645.5) rotate(0) scale(1 1)"><g style="font-size:11px"><text text-anchor="middle" y="-3.3" class="eng-route-halo eng-route-title">DISTRIBUTION BRANCH 01</text><text text-anchor="middle" y="-3.3" class="eng-route-ink eng-route-title">DISTRIBUTION BRANCH 01</text><text text-anchor="middle" y="10.780000000000001" class="eng-route-halo eng-route-tech">4W · 7/3.5 · FO-24C · 24C · 23.85 m</text><text text-anchor="middle" y="10.780000000000001" class="eng-route-ink eng-route-tech">4W · 7/3.5 · FO-24C · 24C · 23.85 m</text></g></g><g class="eng-route-label-text " data-eng-route-label="r3" transform="translate(575 342.5) rotate(0) scale(1 1)"><g style="font-size:11px"><text text-anchor="middle" y="-3.3" class="eng-route-halo eng-route-title">JOINT LINK</text><text text-anchor="middle" y="-3.3" class="eng-route-ink eng-route-title">JOINT LINK</text><text text-anchor="middle" y="10.780000000000001" class="eng-route-halo eng-route-tech">1W · 7/3.5 · FO-24C · 24C · 7.95 m</text><text text-anchor="middle" y="10.780000000000001" class="eng-route-ink eng-route-tech">1W · 7/3.5 · FO-24C · 24C · 7.95 m</text></g></g><g class="eng-route-label-text " data-eng-route-label="r4" transform="translate(630 444.5) rotate(0) scale(1 1)"><g style="font-size:11px"><text text-anchor="middle" y="-3.3" class="eng-route-halo eng-route-title">SECONDARY ROUTE</text><text text-anchor="middle" y="-3.3" class="eng-route-ink eng-route-title">SECONDARY ROUTE</text><text text-anchor="middle" y="10.780000000000001" class="eng-route-halo eng-route-tech">4W · 7/3.5 · FO-24C · 24C · 10.35 m</text><text text-anchor="middle" y="10.780000000000001" class="eng-route-ink eng-route-tech">4W · 7/3.5 · FO-24C · 24C · 10.35 m</text></g></g><g class="eng-route-label-text " data-eng-route-label="r5" transform="translate(875 299.5) rotate(0) scale(1 1)"><g style="font-size:11px"><text text-anchor="middle" y="-3.3" class="eng-route-halo eng-route-title">TB-3 BRANCH</text><text text-anchor="middle" y="-3.3" class="eng-route-ink eng-route-title">TB-3 BRANCH</text><text text-anchor="middle" y="10.780000000000001" class="eng-route-halo eng-route-tech">4W · 7/3.5 · FO-24C · 24C · 29.85 m</text><text text-anchor="middle" y="10.780000000000001" class="eng-route-ink eng-route-tech">4W · 7/3.5 · FO-24C · 24C · 29.85 m</text></g></g><g class="eng-route-label-text " data-eng-route-label="r6" transform="translate(900 554.5) rotate(0) scale(1 1)"><g style="font-size:11px"><text text-anchor="middle" y="-3.3" class="eng-route-halo eng-route-title">TB-4 BRANCH</text><text text-anchor="middle" y="-3.3" class="eng-route-ink eng-route-title">TB-4 BRANCH</text><text text-anchor="middle" y="10.780000000000001" class="eng-route-halo eng-route-tech">1W · 7/3.5 · FO-24C · 24C · 16.35 m</text><text text-anchor="middle" y="10.780000000000001" class="eng-route-ink eng-route-tech">1W · 7/3.5 · FO-24C · 24C · 16.35 m</text></g></g><g class="eng-route-label-text " data-eng-route-label="r7" transform="translate(609.7142857142858 700.2142857142857) rotate(0) scale(1 1)"><g style="font-size:11px"><text text-anchor="middle" y="-3.3" class="eng-route-halo eng-route-title">FEEDER CABLE</text><text text-anchor="middle" y="-3.3" class="eng-route-ink eng-route-title">FEEDER CABLE</text><text text-anchor="middle" y="10.780000000000001" class="eng-route-halo eng-route-tech">FO-24C · 24C · 7.07 m</text><text text-anchor="middle" y="10.780000000000001" class="eng-route-ink eng-route-tech">FO-24C · 24C · 7.07 m</text></g></g><g data-eng-text="qa-note" transform="translate(1220 870) rotate(-6) scale(1 1)" class="eng-annotation-wrap "><rect x="-111.2" y="-20" width="214.4" height="58" rx="4" class="eng-annotation-bg"/><text font-size="20" text-anchor="middle" class="eng-annotation "><tspan x="0" dy="0">ISSUED DRAWING</tspan><tspan x="0" dy="25">رسم جاهز للطباعة</tspan></text></g></g></g><g class="eng-company-frame"><rect x="1608" y="14" width="296" height="972" fill="#fff" stroke="#137A55" stroke-width="3"/><text x="1624" y="43" class="eng-sheet-heading">N</text><path d="M 1636 65 l 0 -25 m -11 12 l 22 0" stroke="#111" stroke-width="2"/><text x="1666" y="43" class="eng-sheet-heading">LEGEND</text><text x="1892" y="59" text-anchor="end" class="eng-sheet-heading eng-arabic-label">الرموز</text><text x="1628" y="65" class="eng-title-label">العناصر المستخدمة</text><g transform="translate(1628 76)"><rect x="0" y="-9" width="15" height="15" rx="3" fill="#fff" stroke="#2563EB" stroke-width="2"/><text x="24" y="3" class="eng-legend-text">كابينة رئيسية 42U</text></g><g transform="translate(1628 97)"><rect x="0" y="-9" width="15" height="15" rx="3" fill="#fff" stroke="#2563EB" stroke-width="2"/><text x="24" y="3" class="eng-legend-text">كابينة فرعية 22U</text></g><g transform="translate(1628 118)"><rect x="0" y="-9" width="15" height="15" rx="3" fill="#fff" stroke="#16A34A" stroke-width="2"/><text x="24" y="3" class="eng-legend-text">بوكس نهاية 96 كور</text></g><g transform="translate(1628 139)"><rect x="0" y="-9" width="15" height="15" rx="3" fill="#fff" stroke="#16A34A" stroke-width="2"/><text x="24" y="3" class="eng-legend-text">بوكس نهاية 24 كور</text></g><g transform="translate(1628 160)"><rect x="0" y="-9" width="15" height="15" rx="3" fill="#fff" stroke="#7C3AED" stroke-width="2"/><text x="24" y="3" class="eng-legend-text">وصلة 96 كور</text></g><text x="1628" y="187" class="eng-title-label">المسارات المستخدمة</text><g transform="translate(1628 197)"><line x1="0" y1="0" x2="20" y2="0" stroke="#16a34a" stroke-width="4"/><text x="28" y="4" class="eng-legend-text">ميكرو دكت 4 مسار 7/3.5</text></g><g transform="translate(1628 218)"><line x1="0" y1="0" x2="20" y2="0" stroke="#e11d48" stroke-width="4"/><text x="28" y="4" class="eng-legend-text">ميكرو دكت 1 مسار 7/3.5</text></g><g transform="translate(1628 239)"><line x1="0" y1="0" x2="20" y2="0" stroke="#0f766e" stroke-width="4"/><text x="28" y="4" class="eng-legend-text">كابل فايبر 24 كور</text></g><line x1="1608" y1="268" x2="1904" y2="268" stroke="#137A55" stroke-width="2"/><g transform="translate(1608 280)"><rect width="296" height="39" fill="none" stroke="#137A55" stroke-width="1"/><text x="8" y="13" class="eng-title-label">PROJECT</text><text x="8" y="31" class="eng-title-value-small">Shatanof Fiber Project</text></g><g transform="translate(1608 319)"><rect width="296" height="39" fill="none" stroke="#137A55" stroke-width="1"/><text x="8" y="13" class="eng-title-label">SITE</text><text x="8" y="31" class="eng-title-value-small">Zone 01</text></g><g transform="translate(1608 358)"><rect width="296" height="39" fill="none" stroke="#137A55" stroke-width="1"/><text x="8" y="13" class="eng-title-label">DRAWING NO.</text><text x="8" y="31" class="eng-title-value-small">P001-FIBER-001</text></g><g transform="translate(1608 397)"><rect width="296" height="39" fill="none" stroke="#137A55" stroke-width="1"/><text x="8" y="13" class="eng-title-label">TITLE</text><text x="8" y="31" class="eng-title-value-small">Secondary Fiber Network — Product…</text></g><g transform="translate(1608 436)"><rect width="296" height="39" fill="none" stroke="#137A55" stroke-width="1"/><text x="8" y="13" class="eng-title-label">CLIENT</text><text x="8" y="31" class="eng-title-value-small">Optimum Client</text></g><g transform="translate(1608 475)"><rect width="296" height="39" fill="none" stroke="#137A55" stroke-width="1"/><text x="8" y="13" class="eng-title-label">CONSULTANT</text><text x="8" y="31" class="eng-title-value-small">Engineering Consultant</text></g><g transform="translate(1608 514)"><rect width="296" height="39" fill="none" stroke="#137A55" stroke-width="1"/><text x="8" y="13" class="eng-title-label">COMPANY</text><text x="8" y="31" class="eng-title-value-small">Optimum Engineering</text></g><g transform="translate(1608 553)"><rect width="296" height="39" fill="none" stroke="#137A55" stroke-width="1"/><text x="8" y="13" class="eng-title-label">REV.</text><text x="8" y="31" class="eng-title-value-small">R2</text></g><g transform="translate(1608 592)"><rect width="296" height="39" fill="none" stroke="#137A55" stroke-width="1"/><text x="8" y="13" class="eng-title-label">STATUS</text><text x="8" y="31" class="eng-title-value-small">FOR APPROVAL</text></g><g transform="translate(1608 631)"><rect width="296" height="39" fill="none" stroke="#137A55" stroke-width="1"/><text x="8" y="13" class="eng-title-label">SCALE</text><text x="8" y="31" class="eng-title-value-small">NTS</text></g><g transform="translate(1608 670)"><rect width="296" height="39" fill="none" stroke="#137A55" stroke-width="1"/><text x="8" y="13" class="eng-title-label">DATE</text><text x="8" y="31" class="eng-title-value-small">2026-08-05</text></g><g transform="translate(1608 826)"><rect width="296" height="160" fill="#F8FBFA" stroke="#137A55"/><text x="8" y="16" class="eng-title-label">LOGOS</text><text x="288" y="16" text-anchor="end" class="eng-title-label eng-arabic-label">الشعارات</text><image href="data:image/svg+xml,%3Csvg xmlns=&apos;http://www.w3.org/2000/svg&apos; viewBox=&apos;0 0 120 55&apos;%3E%3Crect width=&apos;120&apos; height=&apos;55&apos; rx=&apos;7&apos; fill=&apos;%23137A55&apos;/%3E%3Ctext x=&apos;60&apos; y=&apos;34&apos; text-anchor=&apos;middle&apos; font-family=&apos;Arial&apos; font-size=&apos;18&apos; fill=&apos;white&apos;%3EOPTIMUM%3C/text%3E%3C/svg%3E" x="14.5" y="28.5" width="120" height="55" preserveAspectRatio="xMidYMid meet"/><rect x="145" y="26" width="133" height="60" fill="#fff" stroke="#9FC4B5" stroke-dasharray="5 4"/><text x="211.5" y="60" text-anchor="middle" class="eng-title-sub">LOGO 2</text><rect x="8" y="96" width="133" height="60" fill="#fff" stroke="#9FC4B5" stroke-dasharray="5 4"/><text x="74.5" y="130" text-anchor="middle" class="eng-title-sub">LOGO 3</text><rect x="145" y="96" width="133" height="60" fill="#fff" stroke="#9FC4B5" stroke-dasharray="5 4"/><text x="211.5" y="130" text-anchor="middle" class="eng-title-sub">LOGO 4</text></g></g></svg>