0
SECTION
2
HEADER
9
$ACADVER
1
AC1009
9
$INSBASE
10
0
20
0
30
0
9
$EXTMIN
10
0
20
0
9
$EXTMAX
10
1920
20
1000
0
ENDSEC
0
SECTION
2
TABLES
0
TABLE
2
LTYPE
70
1
0
LTYPE
2
CONTINUOUS
70
0
3
Solid line
72
65
73
0
40
0
0
ENDTAB
0
TABLE
2
LAYER
70
15
0
LAYER
2
0
70
0
62
7
6
CONTINUOUS
0
LAYER
2
FRAME
70
0
62
3
6
CONTINUOUS
0
LAYER
2
TITLE_GRID
70
0
62
3
6
CONTINUOUS
0
LAYER
2
TITLE_TEXT
70
0
62
7
6
CONTINUOUS
0
LAYER
2
NODE_CABINET
70
0
62
5
6
CONTINUOUS
0
LAYER
2
NODE_TERMINAL
70
0
62
3
6
CONTINUOUS
0
LAYER
2
NODE_OPTICAL
70
0
62
1
6
CONTINUOUS
0
LAYER
2
NODE_CIVIL
70
0
62
8
6
CONTINUOUS
0
LAYER
2
NODE_JOINT
70
0
62
6
6
CONTINUOUS
0
LAYER
2
NODE_TEXT
70
0
62
7
6
CONTINUOUS
0
LAYER
2
ROUTE_TEXT
70
0
62
7
6
CONTINUOUS
0
LAYER
2
NOTES
70
0
62
7
6
CONTINUOUS
0
LAYER
2
DUCT_4W_7_3_5
70
0
62
3
6
CONTINUOUS
0
LAYER
2
DUCT_1W_7_3_5
70
0
62
1
6
CONTINUOUS
0
LAYER
2
FIBER_24C
70
0
62
4
6
CONTINUOUS
0
ENDTAB
0
TABLE
2
STYLE
70
1
0
STYLE
2
STANDARD
70
0
40
0
41
1
50
0
71
0
42
10
3
Arial.ttf
4

0
ENDTAB
0
ENDSEC
0
SECTION
2
BLOCKS
0
ENDSEC
0
SECTION
2
ENTITIES
0
POLYLINE
8
FRAME
66
1
70
1
10
0
20
0
30
0
0
VERTEX
8
FRAME
10
10
20
10
30
0
0
VERTEX
8
FRAME
10
1590
20
10
30
0
0
VERTEX
8
FRAME
10
1590
20
990
30
0
0
VERTEX
8
FRAME
10
10
20
990
30
0
0
SEQEND
8
FRAME
0
POLYLINE
8
FRAME
66
1
70
1
10
0
20
0
30
0
0
VERTEX
8
FRAME
10
16
20
16
30
0
0
VERTEX
8
FRAME
10
1584
20
16
30
0
0
VERTEX
8
FRAME
10
1584
20
984
30
0
0
VERTEX
8
FRAME
10
16
20
984
30
0
0
SEQEND
8
FRAME
0
POLYLINE
8
DUCT_4W_7_3_5
62
3
66
1
70
0
10
0
20
0
30
0
0
VERTEX
8
DUCT_4W_7_3_5
10
209
20
490
30
0
0
VERTEX
8
DUCT_4W_7_3_5
10
350
20
490
30
0
0
VERTEX
8
DUCT_4W_7_3_5
10
350
20
765
30
0
0
VERTEX
8
DUCT_4W_7_3_5
10
461
20
765
30
0
0
SEQEND
8
DUCT_4W_7_3_5
0
TEXT
8
ROUTE_TEXT
62
7
10
350
20
650.5
30
0
40
11
1
MAIN ROUTE
7
STANDARD
50
4
72
1
11
350
21
650.5
31
0
0
TEXT
8
ROUTE_TEXT
62
7
10
350
20
635.65
30
0
40
11
1
CAB-1 > TB-1  -  4W  -  7/3.5  -  FO-24C  -  24C  -  26.35 m
7
STANDARD
50
4
72
1
11
350
21
635.65
31
0
0
POLYLINE
8
DUCT_4W_7_3_5
62
3
66
1
70
0
10
0
20
0
30
0
0
VERTEX
8
DUCT_4W_7_3_5
10
209
20
490
30
0
0
VERTEX
8
DUCT_4W_7_3_5
10
350
20
490
30
0
0
VERTEX
8
DUCT_4W_7_3_5
10
350
20
265
30
0
0
VERTEX
8
DUCT_4W_7_3_5
10
461
20
265
30
0
0
SEQEND
8
DUCT_4W_7_3_5
0
TEXT
8
ROUTE_TEXT
62
7
10
375
20
354.5
30
0
40
11
1
DISTRIBUTION BRANCH 01
7
STANDARD
50
0
72
1
11
375
21
354.5
31
0
0
TEXT
8
ROUTE_TEXT
62
7
10
375
20
339.65
30
0
40
11
1
CAB-1 > TB-2  -  4W  -  7/3.5  -  FO-24C  -  24C  -  23.85 m
7
STANDARD
50
0
72
1
11
375
21
339.65
31
0
0
POLYLINE
8
DUCT_1W_7_3_5
62
1
66
1
70
0
10
0
20
0
30
0
0
VERTEX
8
DUCT_1W_7_3_5
10
500
20
737
30
0
0
VERTEX
8
DUCT_1W_7_3_5
10
500
20
737
30
0
0
VERTEX
8
DUCT_1W_7_3_5
10
500
20
578
30
0
0
SEQEND
8
DUCT_1W_7_3_5
0
TEXT
8
ROUTE_TEXT
62
7
10
575
20
657.5
30
0
40
11
1
JOINT LINK
7
STANDARD
50
0
72
1
11
575
21
657.5
31
0
0
TEXT
8
ROUTE_TEXT
62
7
10
575
20
642.65
30
0
40
11
1
TB-1 > J-1  -  1W  -  7/3.5  -  FO-24C  -  24C  -  7.95 m
7
STANDARD
50
0
72
1
11
575
21
642.65
31
0
0
POLYLINE
8
DUCT_4W_7_3_5
62
3
66
1
70
0
10
0
20
0
30
0
0
VERTEX
8
DUCT_4W_7_3_5
10
539
20
550
30
0
0
VERTEX
8
DUCT_4W_7_3_5
10
610
20
550
30
0
0
VERTEX
8
DUCT_4W_7_3_5
10
610
20
475
30
0
0
VERTEX
8
DUCT_4W_7_3_5
10
671
20
475
30
0
0
SEQEND
8
DUCT_4W_7_3_5
0
TEXT
8
ROUTE_TEXT
62
7
10
630
20
555.5
30
0
40
11
1
SECONDARY ROUTE
7
STANDARD
50
0
72
1
11
630
21
555.5
31
0
0
TEXT
8
ROUTE_TEXT
62
7
10
630
20
540.65
30
0
40
11
1
J-1 > CAB-2  -  4W  -  7/3.5  -  FO-24C  -  24C  -  10.35 m
7
STANDARD
50
0
72
1
11
630
21
540.65
31
0
0
POLYLINE
8
DUCT_4W_7_3_5
62
3
66
1
70
0
10
0
20
0
30
0
0
VERTEX
8
DUCT_4W_7_3_5
10
749
20
475
30
0
0
VERTEX
8
DUCT_4W_7_3_5
10
860
20
475
30
0
0
VERTEX
8
DUCT_4W_7_3_5
10
860
20
780
30
0
0
VERTEX
8
DUCT_4W_7_3_5
10
1041
20
780
30
0
0
SEQEND
8
DUCT_4W_7_3_5
0
TEXT
8
ROUTE_TEXT
62
7
10
875
20
700.5
30
0
40
11
1
TB-3 BRANCH
7
STANDARD
50
0
72
1
11
875
21
700.5
31
0
0
TEXT
8
ROUTE_TEXT
62
7
10
875
20
685.65
30
0
40
11
1
CAB-2 > TB-3  -  4W  -  7/3.5  -  FO-24C  -  24C  -  29.85 m
7
STANDARD
50
0
72
1
11
875
21
685.65
31
0
0
POLYLINE
8
DUCT_1W_7_3_5
62
1
66
1
70
0
10
0
20
0
30
0
0
VERTEX
8
DUCT_1W_7_3_5
10
749
20
475
30
0
0
VERTEX
8
DUCT_1W_7_3_5
10
900
20
475
30
0
0
VERTEX
8
DUCT_1W_7_3_5
10
900
20
510
30
0
0
VERTEX
8
DUCT_1W_7_3_5
10
1041
20
510
30
0
0
SEQEND
8
DUCT_1W_7_3_5
0
TEXT
8
ROUTE_TEXT
62
7
10
900
20
445.5
30
0
40
11
1
TB-4 BRANCH
7
STANDARD
50
0
72
1
11
900
21
445.5
31
0
0
TEXT
8
ROUTE_TEXT
62
7
10
900
20
430.65
30
0
40
11
1
CAB-2 > TB-4  -  1W  -  7/3.5  -  FO-24C  -  24C  -  16.35 m
7
STANDARD
50
0
72
1
11
900
21
430.65
31
0
0
POLYLINE
8
FIBER_24C
62
4
66
1
70
0
10
0
20
0
30
0
0
VERTEX
8
FIBER_24C
10
539
20
267.7857
30
0
0
VERTEX
8
FIBER_24C
10
671
20
267.7857
30
0
0
VERTEX
8
FIBER_24C
10
671
20
277.2143
30
0
0
SEQEND
8
FIBER_24C
0
TEXT
8
ROUTE_TEXT
62
7
10
609.7143
20
299.7857
30
0
40
11
1
FEEDER CABLE
7
STANDARD
50
0
72
1
11
609.7143
21
299.7857
31
0
0
TEXT
8
ROUTE_TEXT
62
7
10
609.7143
20
284.9357
30
0
40
11
1
TB-2 > MH-1  -  FO-24C  -  24C  -  7.07 m
7
STANDARD
50
0
72
1
11
609.7143
21
284.9357
31
0
0
POLYLINE
8
NODE_CABINET
62
5
66
1
70
1
10
0
20
0
30
0
0
VERTEX
8
NODE_CABINET
10
85
20
432
30
0
0
VERTEX
8
NODE_CABINET
10
255
20
432
30
0
0
VERTEX
8
NODE_CABINET
10
255
20
548
30
0
0
VERTEX
8
NODE_CABINET
10
85
20
548
30
0
0
SEQEND
8
NODE_CABINET
0
LINE
8
NODE_CABINET
10
85
20
522
30
0
11
255
21
522
31
0
0
TEXT
8
NODE_TEXT
62
7
10
170
20
539
30
0
40
13
1
CAB-1
7
STANDARD
50
0
72
1
11
170
21
539
31
0
0
LINE
8
NODE_CABINET
10
85
20
495
30
0
11
255
21
495
31
0
0
LINE
8
NODE_CABINET
10
170
20
495
30
0
11
170
21
522
31
0
0
LINE
8
NODE_CABINET
10
85
20
468
30
0
11
255
21
468
31
0
0
LINE
8
NODE_CABINET
10
170
20
468
30
0
11
170
21
495
31
0
0
LINE
8
NODE_CABINET
10
85
20
441
30
0
11
255
21
441
31
0
0
LINE
8
NODE_CABINET
10
170
20
441
30
0
11
170
21
468
31
0
0
TEXT
8
NODE_TEXT
62
7
10
92
20
504
30
0
40
8.5
1
NO 01
7
STANDARD
50
0
0
TEXT
8
NODE_TEXT
62
7
10
177
20
504
30
0
40
8.5
1
CORE 288
7
STANDARD
50
0
0
TEXT
8
NODE_TEXT
62
7
10
92
20
477
30
0
40
8.5
1
PORT 144
7
STANDARD
50
0
0
TEXT
8
NODE_TEXT
62
7
10
177
20
477
30
0
40
8.5
1
TYPE MAIN-CAB-42U
7
STANDARD
50
0
0
TEXT
8
NODE_TEXT
62
7
10
92
20
450
30
0
40
8.5
1
ODF ODF-144
7
STANDARD
50
0
0
TEXT
8
NODE_TEXT
62
7
10
177
20
450
30
0
40
8.5
1
SP SP-1X16
7
STANDARD
50
0
0
TEXT
8
NODE_TEXT
62
7
10
170
20
398
30
0
40
9
1
MAIN CABINET 01
7
STANDARD
50
0
72
1
11
170
21
398
31
0
0
TEXT
8
NODE_TEXT
62
7
10
170
20
385.85
30
0
40
9
1
ODF 144 \U+00B7 PORT 01
7
STANDARD
50
0
72
1
11
170
21
385.85
31
0
0
POLYLINE
8
NODE_CABINET
62
5
66
1
70
1
10
0
20
0
30
0
0
VERTEX
8
NODE_CABINET
10
625
20
417
30
0
0
VERTEX
8
NODE_CABINET
10
795
20
417
30
0
0
VERTEX
8
NODE_CABINET
10
795
20
533
30
0
0
VERTEX
8
NODE_CABINET
10
625
20
533
30
0
0
SEQEND
8
NODE_CABINET
0
LINE
8
NODE_CABINET
10
625
20
507
30
0
11
795
21
507
31
0
0
TEXT
8
NODE_TEXT
62
7
10
710
20
524
30
0
40
13
1
CAB-2
7
STANDARD
50
0
72
1
11
710
21
524
31
0
0
LINE
8
NODE_CABINET
10
625
20
480
30
0
11
795
21
480
31
0
0
LINE
8
NODE_CABINET
10
710
20
480
30
0
11
710
21
507
31
0
0
LINE
8
NODE_CABINET
10
625
20
453
30
0
11
795
21
453
31
0
0
LINE
8
NODE_CABINET
10
710
20
453
30
0
11
710
21
480
31
0
0
LINE
8
NODE_CABINET
10
625
20
426
30
0
11
795
21
426
31
0
0
LINE
8
NODE_CABINET
10
710
20
426
30
0
11
710
21
453
31
0
0
TEXT
8
NODE_TEXT
62
7
10
632
20
489
30
0
40
8.5
1
NO 02
7
STANDARD
50
0
0
TEXT
8
NODE_TEXT
62
7
10
717
20
489
30
0
40
8.5
1
CORE 144
7
STANDARD
50
0
0
TEXT
8
NODE_TEXT
62
7
10
632
20
462
30
0
40
8.5
1
PORT 72
7
STANDARD
50
0
0
TEXT
8
NODE_TEXT
62
7
10
717
20
462
30
0
40
8.5
1
TYPE SUBCAB-22U
7
STANDARD
50
0
0
TEXT
8
NODE_TEXT
62
7
10
632
20
435
30
0
40
8.5
1
ODF ODF-72
7
STANDARD
50
0
0
TEXT
8
NODE_TEXT
62
7
10
717
20
435
30
0
40
8.5
1
SP SP-1X8
7
STANDARD
50
0
0
TEXT
8
NODE_TEXT
62
7
10
710
20
383
30
0
40
9
1
\U+0628\U+064A\U+0627\U+0646\U+0627\U+062A \U+0643\U+0627\U+0628\U+064A\U+0646\U+0629 \U+0641\U+0631\U+0639\U+064A\U+0629 \U+0642\U+0627\U+0628\U+0644\U+0629 \U+0644\U+0644\U+062A\U+062D\U+0631\U+064A\U+0643
7
STANDARD
50
8
72
1
11
710
21
383
31
0
0
TEXT
8
NODE_TEXT
62
7
10
710
20
370.85
30
0
40
9
1
SUB CABINET 02
7
STANDARD
50
8
72
1
11
710
21
370.85
31
0
0
POLYLINE
8
NODE_TERMINAL
62
3
66
1
70
1
10
0
20
0
30
0
0
VERTEX
8
NODE_TERMINAL
10
429
20
721
30
0
0
VERTEX
8
NODE_TERMINAL
10
571
20
721
30
0
0
VERTEX
8
NODE_TERMINAL
10
571
20
809
30
0
0
VERTEX
8
NODE_TERMINAL
10
429
20
809
30
0
0
SEQEND
8
NODE_TERMINAL
0
LINE
8
NODE_TERMINAL
10
429
20
783
30
0
11
571
21
783
31
0
0
TEXT
8
NODE_TEXT
62
7
10
500
20
800
30
0
40
13
1
TB-1
7
STANDARD
50
0
72
1
11
500
21
800
31
0
0
LINE
8
NODE_TERMINAL
10
429
20
754
30
0
11
571
21
754
31
0
0
LINE
8
NODE_TERMINAL
10
500
20
754
30
0
11
500
21
783
31
0
0
LINE
8
NODE_TERMINAL
10
429
20
725
30
0
11
571
21
725
31
0
0
LINE
8
NODE_TERMINAL
10
500
20
725
30
0
11
500
21
754
31
0
0
TEXT
8
NODE_TEXT
62
7
10
436
20
765
30
0
40
8.5
1
NO 1
7
STANDARD
50
0
0
TEXT
8
NODE_TEXT
62
7
10
507
20
765
30
0
40
8.5
1
CORE 96
7
STANDARD
50
0
0
TEXT
8
NODE_TEXT
62
7
10
436
20
736
30
0
40
8.5
1
PORT 16
7
STANDARD
50
0
0
TEXT
8
NODE_TEXT
62
7
10
507
20
736
30
0
40
8.5
1
TYPE TB-96C
7
STANDARD
50
0
0
TEXT
8
NODE_TEXT
62
7
10
500
20
693
30
0
40
9
1
TERMINATION BOX 01
7
STANDARD
50
0
72
1
11
500
21
693
31
0
0
TEXT
8
NODE_TEXT
62
7
10
500
20
680.85
30
0
40
9
1
CORE 001\U+2013096
7
STANDARD
50
0
72
1
11
500
21
680.85
31
0
0
POLYLINE
8
NODE_TERMINAL
62
3
66
1
70
1
10
0
20
0
30
0
0
VERTEX
8
NODE_TERMINAL
10
429
20
221
30
0
0
VERTEX
8
NODE_TERMINAL
10
571
20
221
30
0
0
VERTEX
8
NODE_TERMINAL
10
571
20
309
30
0
0
VERTEX
8
NODE_TERMINAL
10
429
20
309
30
0
0
SEQEND
8
NODE_TERMINAL
0
LINE
8
NODE_TERMINAL
10
429
20
283
30
0
11
571
21
283
31
0
0
TEXT
8
NODE_TEXT
62
7
10
500
20
300
30
0
40
13
1
TB-2
7
STANDARD
50
0
72
1
11
500
21
300
31
0
0
LINE
8
NODE_TERMINAL
10
429
20
254
30
0
11
571
21
254
31
0
0
LINE
8
NODE_TERMINAL
10
500
20
254
30
0
11
500
21
283
31
0
0
LINE
8
NODE_TERMINAL
10
429
20
225
30
0
11
571
21
225
31
0
0
LINE
8
NODE_TERMINAL
10
500
20
225
30
0
11
500
21
254
31
0
0
TEXT
8
NODE_TEXT
62
7
10
436
20
265
30
0
40
8.5
1
NO 2
7
STANDARD
50
0
0
TEXT
8
NODE_TEXT
62
7
10
507
20
265
30
0
40
8.5
1
CORE 96
7
STANDARD
50
0
0
TEXT
8
NODE_TEXT
62
7
10
436
20
236
30
0
40
8.5
1
PORT 16
7
STANDARD
50
0
0
TEXT
8
NODE_TEXT
62
7
10
507
20
236
30
0
40
8.5
1
TYPE TB-96C
7
STANDARD
50
0
0
TEXT
8
NODE_TEXT
62
7
10
500
20
193
30
0
40
9
1
TB-02
7
STANDARD
50
0
72
1
11
500
21
193
31
0
0
TEXT
8
NODE_TEXT
62
7
10
500
20
180.85
30
0
40
9
1
CORE 097\U+2013192
7
STANDARD
50
0
72
1
11
500
21
180.85
31
0
0
POLYLINE
8
NODE_TERMINAL
62
3
66
1
70
1
10
0
20
0
30
0
0
VERTEX
8
NODE_TERMINAL
10
1009
20
722
30
0
0
VERTEX
8
NODE_TERMINAL
10
1151
20
722
30
0
0
VERTEX
8
NODE_TERMINAL
10
1151
20
838
30
0
0
VERTEX
8
NODE_TERMINAL
10
1009
20
838
30
0
0
SEQEND
8
NODE_TERMINAL
0
LINE
8
NODE_TERMINAL
10
1009
20
812
30
0
11
1151
21
812
31
0
0
TEXT
8
NODE_TEXT
62
7
10
1080
20
829
30
0
40
13
1
TB-3
7
STANDARD
50
0
72
1
11
1080
21
829
31
0
0
LINE
8
NODE_TERMINAL
10
1009
20
785
30
0
11
1151
21
785
31
0
0
LINE
8
NODE_TERMINAL
10
1080
20
785
30
0
11
1080
21
812
31
0
0
LINE
8
NODE_TERMINAL
10
1009
20
758
30
0
11
1151
21
758
31
0
0
LINE
8
NODE_TERMINAL
10
1080
20
758
30
0
11
1080
21
785
31
0
0
LINE
8
NODE_TERMINAL
10
1009
20
731
30
0
11
1151
21
731
31
0
0
LINE
8
NODE_TERMINAL
10
1080
20
731
30
0
11
1080
21
758
31
0
0
TEXT
8
NODE_TEXT
62
7
10
1016
20
794
30
0
40
8.5
1
NO 3
7
STANDARD
50
0
0
TEXT
8
NODE_TEXT
62
7
10
1087
20
794
30
0
40
8.5
1
CORE 24
7
STANDARD
50
0
0
TEXT
8
NODE_TEXT
62
7
10
1016
20
767
30
0
40
8.5
1
PORT 8
7
STANDARD
50
0
0
TEXT
8
NODE_TEXT
62
7
10
1087
20
767
30
0
40
8.5
1
TYPE TB-24C
7
STANDARD
50
0
0
TEXT
8
NODE_TEXT
62
7
10
1016
20
740
30
0
40
8.5
1
ODF -
7
STANDARD
50
0
0
TEXT
8
NODE_TEXT
62
7
10
1087
20
740
30
0
40
8.5
1
SP -
7
STANDARD
50
0
0
TEXT
8
NODE_TEXT
62
7
10
1080
20
726
30
0
40
9
1
24C Termination Box
7
STANDARD
50
0
72
1
11
1080
21
726
31
0
0
POLYLINE
8
NODE_TERMINAL
62
3
66
1
70
1
10
0
20
0
30
0
0
VERTEX
8
NODE_TERMINAL
10
1009
20
452
30
0
0
VERTEX
8
NODE_TERMINAL
10
1151
20
452
30
0
0
VERTEX
8
NODE_TERMINAL
10
1151
20
568
30
0
0
VERTEX
8
NODE_TERMINAL
10
1009
20
568
30
0
0
SEQEND
8
NODE_TERMINAL
0
LINE
8
NODE_TERMINAL
10
1009
20
542
30
0
11
1151
21
542
31
0
0
TEXT
8
NODE_TEXT
62
7
10
1080
20
559
30
0
40
13
1
TB-4
7
STANDARD
50
0
72
1
11
1080
21
559
31
0
0
LINE
8
NODE_TERMINAL
10
1009
20
515
30
0
11
1151
21
515
31
0
0
LINE
8
NODE_TERMINAL
10
1080
20
515
30
0
11
1080
21
542
31
0
0
LINE
8
NODE_TERMINAL
10
1009
20
488
30
0
11
1151
21
488
31
0
0
LINE
8
NODE_TERMINAL
10
1080
20
488
30
0
11
1080
21
515
31
0
0
LINE
8
NODE_TERMINAL
10
1009
20
461
30
0
11
1151
21
461
31
0
0
LINE
8
NODE_TERMINAL
10
1080
20
461
30
0
11
1080
21
488
31
0
0
TEXT
8
NODE_TEXT
62
7
10
1016
20
524
30
0
40
8.5
1
NO 4
7
STANDARD
50
0
0
TEXT
8
NODE_TEXT
62
7
10
1087
20
524
30
0
40
8.5
1
CORE 24
7
STANDARD
50
0
0
TEXT
8
NODE_TEXT
62
7
10
1016
20
497
30
0
40
8.5
1
PORT 8
7
STANDARD
50
0
0
TEXT
8
NODE_TEXT
62
7
10
1087
20
497
30
0
40
8.5
1
TYPE TB-24C
7
STANDARD
50
0
0
TEXT
8
NODE_TEXT
62
7
10
1016
20
470
30
0
40
8.5
1
ODF -
7
STANDARD
50
0
0
TEXT
8
NODE_TEXT
62
7
10
1087
20
470
30
0
40
8.5
1
SP -
7
STANDARD
50
0
0
TEXT
8
NODE_TEXT
62
7
10
1080
20
456
30
0
40
9
1
24C Termination Box
7
STANDARD
50
0
72
1
11
1080
21
456
31
0
0
POLYLINE
8
NODE_JOINT
62
6
66
1
70
1
10
0
20
0
30
0
0
VERTEX
8
NODE_JOINT
10
500
20
580
30
0
0
VERTEX
8
NODE_JOINT
10
532
20
550
30
0
0
VERTEX
8
NODE_JOINT
10
500
20
520
30
0
0
VERTEX
8
NODE_JOINT
10
468
20
550
30
0
0
SEQEND
8
NODE_JOINT
0
TEXT
8
NODE_TEXT
62
7
10
500
20
554
30
0
40
12
1
J-1
7
STANDARD
50
0
72
1
11
500
21
554
31
0
0
CIRCLE
8
NODE_CIVIL
62
8
10
710
20
280
30
0
40
36
0
CIRCLE
8
NODE_CIVIL
62
8
10
710
20
280
30
0
40
25
0
TEXT
8
NODE_TEXT
62
7
10
710
20
284
30
0
40
11
1
MH-1
7
STANDARD
50
0
72
1
11
710
21
284
31
0
0
TEXT
8
NOTES
62
7
10
1220
20
130
30
0
40
20
1
ISSUED DRAWING
7
STANDARD
50
6
72
1
11
1220
21
130
31
0
0
TEXT
8
NOTES
62
7
10
1220
20
103
30
0
40
20
1
\U+0631\U+0633\U+0645 \U+062C\U+0627\U+0647\U+0632 \U+0644\U+0644\U+0637\U+0628\U+0627\U+0639\U+0629
7
STANDARD
50
6
72
1
11
1220
21
103
31
0
0
POLYLINE
8
FRAME
62
3
66
1
70
1
10
0
20
0
30
0
0
VERTEX
8
FRAME
10
1610
20
10
30
0
0
VERTEX
8
FRAME
10
1910
20
10
30
0
0
VERTEX
8
FRAME
10
1910
20
990
30
0
0
VERTEX
8
FRAME
10
1610
20
990
30
0
0
SEQEND
8
FRAME
0
TEXT
8
TITLE_TEXT
62
7
10
1622
20
970
30
0
40
18
1
LEGEND
7
STANDARD
50
0
0
LINE
8
DUCT_4W_7_3_5
62
3
10
1622
20
927
30
0
11
1677
21
927
31
0
0
TEXT
8
TITLE_TEXT
62
7
10
1688
20
930
30
0
40
9
1
4W 7/3.5 Microduct
7
STANDARD
50
0
0
LINE
8
DUCT_1W_7_3_5
62
1
10
1622
20
902
30
0
11
1677
21
902
31
0
0
TEXT
8
TITLE_TEXT
62
7
10
1688
20
905
30
0
40
9
1
1W 7/3.5 Microduct
7
STANDARD
50
0
0
LINE
8
FIBER_24C
62
4
10
1622
20
877
30
0
11
1677
21
877
31
0
0
TEXT
8
TITLE_TEXT
62
7
10
1688
20
880
30
0
40
9
1
24C Fiber Cable
7
STANDARD
50
0
0
LINE
8
TITLE_GRID
62
3
10
1610
20
680
30
0
11
1910
21
680
31
0
0
TEXT
8
TITLE_TEXT
62
7
10
1622
20
670
30
0
40
7
1
PROJECT
7
STANDARD
50
0
0
TEXT
8
TITLE_TEXT
62
7
10
1622
20
652
30
0
40
10
1
Shatanof Fiber Project
7
STANDARD
50
0
0
LINE
8
TITLE_GRID
62
3
10
1610
20
635
30
0
11
1910
21
635
31
0
0
TEXT
8
TITLE_TEXT
62
7
10
1622
20
625
30
0
40
7
1
SITE
7
STANDARD
50
0
0
TEXT
8
TITLE_TEXT
62
7
10
1622
20
607
30
0
40
10
1
Zone 01
7
STANDARD
50
0
0
LINE
8
TITLE_GRID
62
3
10
1610
20
590
30
0
11
1910
21
590
31
0
0
TEXT
8
TITLE_TEXT
62
7
10
1622
20
580
30
0
40
7
1
DRAWING NO
7
STANDARD
50
0
0
TEXT
8
TITLE_TEXT
62
7
10
1622
20
562
30
0
40
10
1
P001-FIBER-001
7
STANDARD
50
0
0
LINE
8
TITLE_GRID
62
3
10
1610
20
545
30
0
11
1910
21
545
31
0
0
TEXT
8
TITLE_TEXT
62
7
10
1622
20
535
30
0
40
7
1
TITLE
7
STANDARD
50
0
0
TEXT
8
TITLE_TEXT
62
7
10
1622
20
517
30
0
40
10
1
Secondary Fiber Network \U+2014 Production Freeze
7
STANDARD
50
0
0
LINE
8
TITLE_GRID
62
3
10
1610
20
500
30
0
11
1910
21
500
31
0
0
TEXT
8
TITLE_TEXT
62
7
10
1622
20
490
30
0
40
7
1
CLIENT
7
STANDARD
50
0
0
TEXT
8
TITLE_TEXT
62
7
10
1622
20
472
30
0
40
10
1
Optimum Client
7
STANDARD
50
0
0
LINE
8
TITLE_GRID
62
3
10
1610
20
455
30
0
11
1910
21
455
31
0
0
TEXT
8
TITLE_TEXT
62
7
10
1622
20
445
30
0
40
7
1
CONSULTANT
7
STANDARD
50
0
0
TEXT
8
TITLE_TEXT
62
7
10
1622
20
427
30
0
40
10
1
Engineering Consultant
7
STANDARD
50
0
0
LINE
8
TITLE_GRID
62
3
10
1610
20
410
30
0
11
1910
21
410
31
0
0
TEXT
8
TITLE_TEXT
62
7
10
1622
20
400
30
0
40
7
1
COMPANY
7
STANDARD
50
0
0
TEXT
8
TITLE_TEXT
62
7
10
1622
20
382
30
0
40
10
1
Optimum Engineering
7
STANDARD
50
0
0
LINE
8
TITLE_GRID
62
3
10
1610
20
365
30
0
11
1910
21
365
31
0
0
TEXT
8
TITLE_TEXT
62
7
10
1622
20
355
30
0
40
7
1
REV
7
STANDARD
50
0
0
TEXT
8
TITLE_TEXT
62
7
10
1622
20
337
30
0
40
10
1
R2
7
STANDARD
50
0
0
LINE
8
TITLE_GRID
62
3
10
1610
20
320
30
0
11
1910
21
320
31
0
0
TEXT
8
TITLE_TEXT
62
7
10
1622
20
310
30
0
40
7
1
STATUS
7
STANDARD
50
0
0
TEXT
8
TITLE_TEXT
62
7
10
1622
20
292
30
0
40
10
1
FOR APPROVAL
7
STANDARD
50
0
0
LINE
8
TITLE_GRID
62
3
10
1610
20
275
30
0
11
1910
21
275
31
0
0
TEXT
8
TITLE_TEXT
62
7
10
1622
20
265
30
0
40
7
1
SCALE
7
STANDARD
50
0
0
TEXT
8
TITLE_TEXT
62
7
10
1622
20
247
30
0
40
10
1
NTS
7
STANDARD
50
0
0
LINE
8
TITLE_GRID
62
3
10
1610
20
230
30
0
11
1910
21
230
31
0
0
TEXT
8
TITLE_TEXT
62
7
10
1622
20
220
30
0
40
7
1
DATE
7
STANDARD
50
0
0
TEXT
8
TITLE_TEXT
62
7
10
1622
20
202
30
0
40
10
1
2026-08-05
7
STANDARD
50
0
0
ENDSEC
0
EOF
